<svg width="36.4" height="32.9" viewBox="0 0 52 47" fill="none" xmlns="http://www.w3.org/2000/svg">
<path d="M5.20943 40H1C0.175955 40 -0.294427 39.0592 0.2 38.4C0.388854 38.1482 0.685243 38 1 38H1.5C2.05228 38 2.5 37.5523 2.5 37C2.5 36.4477 2.94772 36 3.5 36H17.5C18.0523 36 18.5 35.5523 18.5 35C18.5 34.4477 18.9477 34 19.5 34C20.0523 34 20.5 33.5523 20.5 33V32.75C20.5 32.0596 21.0596 31.5 21.75 31.5H23.25C23.9404 31.5 24.5 30.9404 24.5 30.25C24.5 29.5596 23.9404 29 23.25 29H22.25C21.2835 29 20.5 28.2165 20.5 27.25V26.5C20.5 25.9477 20.0523 25.5 19.5 25.5C18.9477 25.5 18.5 25.0523 18.5 24.5C18.5 23.9477 18.0523 23.5 17.5 23.5H17C16.1716 23.5 15.5 22.8284 15.5 22V21.25C15.5 20.2835 16.2835 19.5 17.25 19.5H18.25C18.6642 19.5 19 19.1642 19 18.75C19 18.3358 18.6642 18 18.25 18H18C17.4477 18 17 17.5523 17 17V16.75C17 16.3358 16.6642 16 16.25 16C15.8358 16 15.5 15.6642 15.5 15.25V14C15.5 13.4477 15.0523 13 14.5 13C13.9477 13 13.5 12.5523 13.5 12C13.5 11.4477 13.0523 11 12.5 11H12C11.4477 11 11 10.5523 11 10C11 9.44771 11.4477 9 12 9H16C16.5523 9 17 8.55229 17 8V7.75C17 7.33579 17.3358 7 17.75 7C18.1642 7 18.5 6.66421 18.5 6.25V4.25C18.5 3.83579 18.1642 3.5 17.75 3.5C17.3358 3.5 17 3.16421 17 2.75V2.62829C17 2.25308 16.7599 1.91997 16.4039 1.80132L16.0961 1.69868C15.7401 1.58003 15.5 1.24692 15.5 0.871708C15.5 0.390277 15.8903 0 16.3717 0H19.25C19.6642 0 20 0.335786 20 0.75C20 1.16421 20.3358 1.5 20.75 1.5H21.75C22.1642 1.5 22.5 1.83579 22.5 2.25C22.5 2.66421 22.8358 3 23.25 3H23.5C24.0523 3 24.5 3.44772 24.5 4C24.5 4.55228 24.9477 5 25.5 5C26.0523 5 26.5 5.44772 26.5 6C26.5 6.55228 26.9477 7 27.5 7H28.5C29.0523 7 29.5 7.44772 29.5 8C29.5 8.55229 29.9477 9 30.5 9H32.25C32.6642 9 33 9.33579 33 9.75C33 10.1642 33.3358 10.5 33.75 10.5H34.5C35.0523 10.5 35.5 10.9477 35.5 11.5C35.5 12.0523 35.9477 12.5 36.5 12.5H36.75C37.1642 12.5 37.5 12.8358 37.5 13.25C37.5 13.6642 37.8358 14 38.25 14C38.6642 14 39 14.3358 39 14.75V15C39 15.5523 39.4477 16 40 16H42.5C43.6046 16 44.5 16.8954 44.5 18V19C44.5 19.5523 44.0523 20 43.5 20H43.25C42.8358 20 42.5 20.3358 42.5 20.75C42.5 21.1642 42.1642 21.5 41.75 21.5H41.5C40.9477 21.5 40.5 21.9477 40.5 22.5V26.5C40.5 27.0523 40.9477 27.5 41.5 27.5C42.0523 27.5 42.5 27.9477 42.5 28.5V29C42.5 29.8284 43.1716 30.5 44 30.5H47C47.5523 30.5 48 30.9477 48 31.5C48 32.0523 48.4477 32.5 49 32.5H50C51.1046 32.5 52 33.3954 52 34.5V35C52 35.8284 51.3284 36.5 50.5 36.5H50C49.4477 36.5 49 36.9477 49 37.5C49 38.0523 48.5523 38.5 48 38.5H47C46.4477 38.5 46 38.9477 46 39.5C46 40.0523 45.5523 40.5 45 40.5H43H42.5H41.8536C41.6272 40.5 41.4101 40.4101 41.25 40.25C41.0899 40.0899 40.8728 40 40.6464 40H40.5H39.5H37C36.1716 40 35.5 40.6716 35.5 41.5V42.25C35.5 42.6642 35.8358 43 36.25 43C36.6642 43 37 43.3358 37 43.75C37 44.1642 37.3358 44.5 37.75 44.5H39.5C40.3284 44.5 41 45.1716 41 46C41 46.5523 40.5523 47 40 47H37.5C37.2239 47 37 46.7761 37 46.5C37 46.2239 36.7761 46 36.5 46H36.25C35.8358 46 35.5 45.6642 35.5 45.25C35.5 44.8358 35.1642 44.5 34.75 44.5C34.3358 44.5 34 44.1642 34 43.75C34 43.3358 33.6642 43 33.25 43H30.25C29.8358 43 29.5 43.3358 29.5 43.75C29.5 44.1642 29.1642 44.5 28.75 44.5H17.75C17.3358 44.5 17 44.1642 17 43.75C17 43.3358 16.6642 43 16.25 43H14.25C13.8358 43 13.5 42.6642 13.5 42.25C13.5 41.8358 13.1642 41.5 12.75 41.5H7.29057C6.81845 41.5 6.3993 41.1979 6.25 40.75C6.1007 40.3021 5.68155 40 5.20943 40Z" fill="black"/>
</svg>
