<svg width="31.5" height="27.3" viewBox="0 0 45 39" fill="none" xmlns="http://www.w3.org/2000/svg">
<path d="M9 26V29C9 29.5523 8.55229 30 8 30C7.44772 30 7 29.5523 7 29V19.5V18C7 17.4477 7.44772 17 8 17C8.55229 17 9 16.5523 9 16C9 15.4477 9.44771 15 10 15H12.25C12.6642 15 13 14.6642 13 14.25C13 13.8358 13.3358 13.5 13.75 13.5H14C14.5523 13.5 15 13.0523 15 12.5C15 11.9477 14.5523 11.5 14 11.5H6.5C5.94772 11.5 5.5 11.0523 5.5 10.5C5.5 9.94771 5.05228 9.5 4.5 9.5H1C0.447715 9.5 0 9.05229 0 8.5C0 7.94772 0.447715 7.5 1 7.5H1.75C2.16421 7.5 2.5 7.16421 2.5 6.75C2.5 6.33579 2.83579 6 3.25 6H4H7C7.55228 6 8 5.55228 8 5C8 4.44772 8.44771 4 9 4H14.25C14.6642 4 15 3.66421 15 3.25C15 2.83579 15.3358 2.5 15.75 2.5H17.25C17.9404 2.5 18.5 1.94036 18.5 1.25C18.5 0.559644 19.0596 0 19.75 0H28C28.5523 0 29 0.447715 29 1C29 1.55228 29.4477 2 30 2H32C32.5523 2 33 2.44772 33 3C33 3.55228 33.4477 4 34 4H35.5C36.0523 4 36.5 4.44772 36.5 5C36.5 5.55228 36.9477 6 37.5 6H38.25C38.6642 6 39 6.33579 39 6.75C39 7.16421 39.3358 7.5 39.75 7.5H40.25C40.9404 7.5 41.5 8.05964 41.5 8.75V9C41.5 9.82843 42.1716 10.5 43 10.5C43.8284 10.5 44.5 11.1716 44.5 12V15C44.5 15.5523 44.0523 16 43.5 16C42.9477 16 42.5 16.4477 42.5 17V22.25C42.5 22.6642 42.1642 23 41.75 23C41.3358 23 41 23.3358 41 23.75V27C41 27.5523 40.5523 28 40 28C39.4477 28 39 28.4477 39 29V29.25C39 29.9404 38.4404 30.5 37.75 30.5C37.0596 30.5 36.5 31.0596 36.5 31.75V32.75C36.5 33.1642 36.1642 33.5 35.75 33.5C35.3358 33.5 35 33.8358 35 34.25V36C35 36.5523 34.5523 37 34 37C33.4477 37 33 37.4477 33 38C33 38.5523 32.5523 39 32 39H31.5C30.6716 39 30 38.3284 30 37.5V34C30 33.7239 29.7761 33.5 29.5 33.5C29.2239 33.5 29 33.2761 29 33V21.5C29 20.9477 28.5523 20.5 28 20.5C27.4477 20.5 27 20.0523 27 19.5V18.75C27 17.7835 26.2165 17 25.25 17H20.75C20.0596 17 19.5 17.5596 19.5 18.25C19.5 18.9404 18.9404 19.5 18.25 19.5H15.5C15.2239 19.5 15 19.7239 15 20C15 20.2761 14.7761 20.5 14.5 20.5H14C13.4477 20.5 13 20.9477 13 21.5V22C13 22.5523 12.5523 23 12 23C11.4477 23 11 23.4477 11 24C11 24.5523 10.5523 25 10 25C9.44771 25 9 25.4477 9 26Z" fill="black"/>
</svg>
