<svg width="30.8" height="29.4" viewBox="0 0 44 42" fill="none" xmlns="http://www.w3.org/2000/svg">
<path d="M15.25 32.5H10C9.72386 32.5 9.5 32.7239 9.5 33C9.5 33.2761 9.27614 33.5 9 33.5H1.5C0.671573 33.5 0 34.1716 0 35C0 35.8284 0.671573 36.5 1.5 36.5H5C5.55228 36.5 6 36.9477 6 37.5C6 38.0523 6.44772 38.5 7 38.5H10C10.2761 38.5 10.5 38.7239 10.5 39C10.5 39.2761 10.7239 39.5 11 39.5H16.5C17.0523 39.5 17.5 39.9477 17.5 40.5C17.5 41.0523 17.9477 41.5 18.5 41.5H31.5H33C33.5523 41.5 34 41.0523 34 40.5C34 39.9477 34.4477 39.5 35 39.5H35.5C36.0523 39.5 36.5 39.0523 36.5 38.5C36.5 37.9477 36.9477 37.5 37.5 37.5C38.0523 37.5 38.5 37.0523 38.5 36.5V36C38.5 35.4477 38.9477 35 39.5 35H39.75C40.1642 35 40.5 34.6642 40.5 34.25C40.5 33.8358 40.8358 33.5 41.25 33.5H42.75C43.4404 33.5 44 32.9404 44 32.25C44 31.5596 43.4404 31 42.75 31H37.5C36.9477 31 36.5 30.5523 36.5 30C36.5 29.4477 36.0523 29 35.5 29H35.25C34.5596 29 34 28.4404 34 27.75C34 27.0596 33.4404 26.5 32.75 26.5C32.0596 26.5 31.5 25.9404 31.5 25.25V25C31.5 24.1716 30.8284 23.5 30 23.5C29.1716 23.5 28.5 22.8284 28.5 22V21.25C28.5 20.8358 28.1642 20.5 27.75 20.5C27.3358 20.5 27 20.1642 27 19.75V18.5C27 17.3954 26.1046 16.5 25 16.5C23.8954 16.5 23 15.6046 23 14.5V13C23 12.4477 22.5523 12 22 12C21.4477 12 21 11.5523 21 11V10.75C21 10.0596 20.4404 9.5 19.75 9.5C19.0596 9.5 18.5 8.94036 18.5 8.25V6.75C18.5 6.05964 17.9404 5.5 17.25 5.5H17C16.4477 5.5 16 5.05228 16 4.5C16 3.94772 15.5523 3.5 15 3.5H14.5C13.6716 3.5 13 2.82843 13 2V1.75C13 0.783502 12.2165 0 11.25 0H10.5H9.25C8.2835 0 7.5 0.783502 7.5 1.75V2C7.5 2.82843 8.17157 3.5 9 3.5C9.82843 3.5 10.5 4.17157 10.5 5V7C10.5 7.27614 10.2761 7.5 10 7.5C9.72386 7.5 9.5 7.72386 9.5 8V8.5C9.5 9.05229 9.05229 9.5 8.5 9.5H6.7562C6.28016 9.5 5.8319 9.27587 5.54628 8.89504L5.07953 8.27271C4.77366 7.86488 4.17749 7.82251 3.81702 8.18298C3.61896 8.38104 3.53299 8.66497 3.58792 8.93962L4.36748 12.8374C4.44453 13.2227 4.78282 13.5 5.17574 13.5C5.63096 13.5 6 13.869 6 14.3243V15.75C6 16.1642 6.33579 16.5 6.75 16.5C7.16421 16.5 7.5 16.8358 7.5 17.25V21.5C7.5 22.0523 7.94772 22.5 8.5 22.5C9.05229 22.5 9.5 22.9477 9.5 23.5V24.75C9.5 25.7165 10.2835 26.5 11.25 26.5H11.75C12.4404 26.5 13 27.0596 13 27.75V28C13 28.5523 13.4477 29 14 29C14.5523 29 15 29.4477 15 30V30.5C15 30.7761 15.2239 31 15.5 31C15.7761 31 16 31.2239 16 31.5V31.75C16 32.1642 15.6642 32.5 15.25 32.5Z" fill="black"/>
</svg>
