<svg width="42" height="22.4" viewBox="0 0 60 32" fill="none" xmlns="http://www.w3.org/2000/svg">
<path d="M1 6V6.25C1 6.94036 1.55964 7.5 2.25 7.5C2.94036 7.5 3.5 8.05964 3.5 8.75V9.25C3.5 9.66421 3.83579 10 4.25 10C4.66421 10 5 10.3358 5 10.75C5 11.1642 5.33579 11.5 5.75 11.5H7C7.55228 11.5 8 11.9477 8 12.5C8 13.0523 8.44771 13.5 9 13.5H9.25C9.66421 13.5 10 13.8358 10 14.25C10 14.6642 10.3358 15 10.75 15H11C11.2761 15 11.5 15.2239 11.5 15.5C11.5 15.7761 11.2761 16 11 16H7.23607C6.55341 16 6 16.5534 6 17.2361C6 17.7043 6.26452 18.1323 6.68328 18.3416L7 18.5C7.61287 18.8064 8 19.4433 8 20.1285C8 21.1525 7.16989 22 6.1459 22H4.75C4.33579 22 4 22.3358 4 22.75C4 23.1642 3.66421 23.5 3.25 23.5C2.83579 23.5 2.5 23.8358 2.5 24.25V24.5C2.5 25.0523 2.94772 25.5 3.5 25.5H6H14C14.5523 25.5 15 25.9477 15 26.5C15 27.0523 15.4477 27.5 16 27.5H16.5C17.0523 27.5 17.5 27.9477 17.5 28.5C17.5 29.0523 17.9477 29.5 18.5 29.5H20.5C21.0523 29.5 21.5 29.9477 21.5 30.5C21.5 31.0523 21.9477 31.5 22.5 31.5H28C28.5523 31.5 29 31.0523 29 30.5C29 29.9477 29.4477 29.5 30 29.5H31C31.5523 29.5 32 29.0523 32 28.5C32 27.9477 32.4477 27.5 33 27.5H33.5C34.0523 27.5 34.5 27.0523 34.5 26.5C34.5 25.9477 34.9477 25.5 35.5 25.5H36C36.5523 25.5 37 25.9477 37 26.5C37 27.0523 37.4477 27.5 38 27.5H40.5C41.0523 27.5 41.5 27.9477 41.5 28.5C41.5 29.0523 41.9477 29.5 42.5 29.5H46C46.2761 29.5 46.5 29.7239 46.5 30C46.5 30.2761 46.7239 30.5 47 30.5H48C48.2761 30.5 48.5 30.7239 48.5 31C48.5 31.2761 48.7239 31.5 49 31.5H56.5C57.0523 31.5 57.5 31.0523 57.5 30.5C57.5 29.9477 57.9477 29.5 58.5 29.5C59.0523 29.5 59.5 29.0523 59.5 28.5V26.5C59.5 25.9477 59.0523 25.5 58.5 25.5H58.25C57.8358 25.5 57.5 25.1642 57.5 24.75C57.5 24.3358 57.1642 24 56.75 24H56.5C55.9477 24 55.5 23.5523 55.5 23C55.5 22.4477 55.0523 22 54.5 22H52.5H51.118C50.7116 22 50.3107 21.9054 49.9472 21.7236L48.9472 21.2236C48.6731 21.0866 48.5 20.8064 48.5 20.5C48.5 19.1193 47.3807 18 46 18H41.309C40.8622 18 40.5 18.3622 40.5 18.809C40.5 18.9346 40.4708 19.0585 40.4146 19.1708L40.0313 19.9374C39.7057 20.5886 39.0401 21 38.3119 21C38.1053 21 37.9001 20.9667 37.7041 20.9014L36.7649 20.5883C36.5895 20.5298 36.4057 20.5 36.2208 20.5H35.25C34.8358 20.5 34.5 20.1642 34.5 19.75C34.5 19.3358 34.1642 19 33.75 19H33.5C32.9477 19 32.5 18.5523 32.5 18V16.75C32.5 16.3358 32.1642 16 31.75 16C31.3358 16 31 15.6642 31 15.25V13.25C31 12.8358 30.6642 12.5 30.25 12.5C29.8358 12.5 29.5 12.1642 29.5 11.75V10.25C29.5 9.55964 28.9404 9 28.25 9C27.5596 9 27 8.44036 27 7.75V5.5C27 4.94772 26.5523 4.5 26 4.5C25.4477 4.5 25 4.05228 25 3.5C25 2.94772 24.5523 2.5 24 2.5H20C19.4477 2.5 19 2.94772 19 3.5C19 4.05228 18.5523 4.5 18 4.5H14C13.4477 4.5 13 4.05228 13 3.5C13 2.94772 12.5523 2.5 12 2.5H8.25C7.55964 2.5 7 1.94036 7 1.25C7 0.559644 6.44036 0 5.75 0H2.78115C1.24516 0 0 1.24516 0 2.78115V3.94098C0 4.28359 0.193567 4.59678 0.5 4.75C0.806433 4.90322 1 5.21641 1 5.55902V6Z" fill="black"/>
</svg>
