<svg width="28" height="30.8" viewBox="0 0 40 44" fill="none" xmlns="http://www.w3.org/2000/svg">
<path d="M7 34.6972V12.5V12.0308C7 11.425 6.58771 10.8969 6 10.75L5.63803 10.6595C5.26306 10.5658 5 10.2288 5 9.84233C5 9.37712 4.62288 9 4.15767 9H3.25C2.83579 9 2.5 8.66421 2.5 8.25C2.5 7.83579 2.16421 7.5 1.75 7.5C1.33579 7.5 1 7.16421 1 6.75V6C1 4.34315 2.34315 3 4 3H17.5C18.0523 3 18.5 2.55228 18.5 2C18.5 1.44772 18.9477 1 19.5 1H31C31.5523 1 32 1.44772 32 2C32 2.55228 32.4477 3 33 3H33.5H34.5C35.0523 3 35.5 3.44772 35.5 4C35.5 4.55228 35.9477 5 36.5 5C37.0523 5 37.5 5.44772 37.5 6V7C37.5 8.10457 36.6046 9 35.5 9H34.25C33.8358 9 33.5 9.33579 33.5 9.75C33.5 10.1642 33.8358 10.5 34.25 10.5H34.5C35.0523 10.5 35.5 10.9477 35.5 11.5C35.5 12.0523 35.9477 12.5 36.5 12.5C37.0523 12.5 37.5 12.9477 37.5 13.5V13.75C37.5 14.1642 37.8358 14.5 38.25 14.5C38.6642 14.5 39 14.8358 39 15.25V19.25C39 19.6642 38.6642 20 38.25 20C37.8358 20 37.5 20.3358 37.5 20.75V22.5C37.5 23.0523 37.0523 23.5 36.5 23.5C35.9477 23.5 35.5 23.9477 35.5 24.5C35.5 25.0523 35.0523 25.5 34.5 25.5H30.5C29.9477 25.5 29.5 25.0523 29.5 24.5V23.5V22.5C29.5 21.9477 29.0523 21.5 28.5 21.5C27.9477 21.5 27.5 21.0523 27.5 20.5V20C27.5 19.7239 27.2761 19.5 27 19.5C26.7239 19.5 26.5 19.7239 26.5 20V21.5V22.75C26.5 23.1642 26.1642 23.5 25.75 23.5C25.3358 23.5 25 23.8358 25 24.25V25.75C25 26.1642 24.6642 26.5 24.25 26.5C23.8358 26.5 23.5 26.8358 23.5 27.25V28.25C23.5 28.9404 22.9404 29.5 22.25 29.5H22C21.4477 29.5 21 29.9477 21 30.5C21 31.0523 20.5523 31.5 20 31.5H19.75C19.0596 31.5 18.5 32.0596 18.5 32.75V34C18.5 34.2761 18.2761 34.5 18 34.5C17.7239 34.5 17.5 34.7239 17.5 35V36.5C17.5 37.0523 17.0523 37.5 16.5 37.5C15.9477 37.5 15.5 37.9477 15.5 38.5C15.5 39.0523 15.0523 39.5 14.5 39.5H14C13.4477 39.5 13 39.9477 13 40.5C13 41.0523 12.5523 41.5 12 41.5H9.75C9.33579 41.5 9 41.8358 9 42.25C9 42.6642 8.66421 43 8.25 43H7C5.89543 43 5 42.1046 5 41V40.3134C5 39.783 5.157 39.2645 5.45121 38.8232L6 38C6.65205 37.0219 7 35.8727 7 34.6972Z" fill="black" stroke="black"/>
</svg>
