<svg width="486.4" height="240.8" viewBox="0 0 608 301" fill="none" xmlns="http://www.w3.org/2000/svg">
<g clip-path="url(#clip0_51_16)">
<g clip-path="url(#clip1_51_16)">
<path d="M170.615 190.404C174.169 184.696 182.57 184.975 185.737 190.908L257.084 324.572C260.251 330.504 255.808 337.64 249.087 337.416L97.6574 332.373C90.9364 332.149 86.9781 324.733 90.5324 319.025L170.615 190.404Z" fill="black"/>
<path d="M171.707 157.626C175.261 151.918 183.662 152.198 186.829 158.13L242.127 261.726C245.293 267.659 240.85 274.795 234.129 274.571L116.763 270.662C110.042 270.438 106.084 263.023 109.638 257.314L171.707 157.626Z" fill="black"/>
<path d="M172.798 124.848C176.352 119.14 184.754 119.419 187.92 125.352L227.169 198.881C230.335 204.813 225.892 211.949 219.171 211.725L135.869 208.951C129.149 208.727 125.19 201.311 128.745 195.603L172.798 124.848Z" fill="black"/>
<path d="M173.52 98.5843C177.075 92.8757 185.476 93.1555 188.643 99.0879L211.655 142.2C214.822 148.133 210.379 155.268 203.658 155.045L154.815 153.418C148.094 153.194 144.136 145.779 147.69 140.07L173.52 98.5843Z" fill="black"/>
<path d="M177.739 77.9788C179.635 74.9343 184.115 75.0835 185.804 78.2474L196.836 98.9137C198.524 102.078 196.155 105.883 192.57 105.764L169.157 104.984C165.573 104.865 163.462 100.91 165.357 97.8654L177.739 77.9788Z" fill="black"/>
</g>
<g clip-path="url(#clip2_51_16)">
<path d="M55.6768 143.313C59.4177 137.725 67.8051 138.282 70.7742 144.315L157.198 319.943C160.167 325.976 155.491 332.962 148.781 332.516L-46.5286 319.547C-53.2385 319.102 -56.9499 311.56 -53.2091 305.971L55.6768 143.313Z" fill="black"/>
<path d="M58.3784 102.627C62.1192 97.0391 70.5066 97.596 73.4757 103.63L141.19 241.236C144.159 247.27 139.483 254.255 132.773 253.809L-20.2546 243.648C-26.9645 243.203 -30.6759 235.66 -26.9351 230.072L58.3784 102.627Z" fill="black"/>
<path d="M61.08 61.9412C64.8208 56.353 73.2082 56.9099 76.1773 62.9436L125.182 162.529C128.151 168.562 123.475 175.548 116.765 175.102L6.0194 167.749C-0.690512 167.303 -4.40188 159.761 -0.661073 154.173L61.08 61.9412Z" fill="black"/>
<path d="M63.0553 29.3346C66.7962 23.7464 75.1836 24.3034 78.1527 30.3371L108.23 91.4597C111.199 97.4935 106.523 104.479 99.8133 104.033L31.8408 99.5197C25.1309 99.0742 21.4195 91.532 25.1603 85.9438L63.0553 29.3346Z" fill="black"/>
<path d="M68.1875 5.33069C70.1826 2.35032 74.6559 2.64735 76.2394 5.86534L90.8328 35.5216C92.4163 38.7396 89.9224 42.465 86.3438 42.2274L53.364 40.0375C49.7854 39.7999 47.806 35.7774 49.8011 32.7971L68.1875 5.33069Z" fill="black"/>
</g>
<g clip-path="url(#clip3_51_16)">
<path d="M285.346 170.559C289.087 164.97 297.474 165.527 300.443 171.561L378.673 330.537C381.642 336.571 376.966 343.556 370.256 343.11L193.464 331.371C186.754 330.926 183.043 323.383 186.784 317.795L285.346 170.559Z" fill="black"/>
<path d="M287.826 133.214C291.567 127.625 299.954 128.182 302.923 134.216L363.979 258.293C366.949 264.327 362.273 271.312 355.563 270.866L217.581 261.704C210.871 261.259 207.159 253.717 210.9 248.128L287.826 133.214Z" fill="black"/>
<path d="M290.306 95.8686C294.046 90.2804 302.434 90.8373 305.403 96.8711L349.286 186.049C352.255 192.083 347.579 199.068 340.869 198.622L241.697 192.037C234.987 191.592 231.276 184.05 235.017 178.461L290.306 95.8686Z" fill="black"/>
<path d="M292.119 65.9396C295.859 60.3515 304.247 60.9084 307.216 66.9421L333.727 120.816C336.696 126.85 332.02 133.835 325.31 133.389L265.398 129.411C258.688 128.966 254.977 121.424 258.718 115.835L292.119 65.9396Z" fill="black"/>
<path d="M297.152 43.4249C299.147 40.4446 303.62 40.7416 305.204 43.9596L318.014 69.9915C319.597 73.2095 317.103 76.9349 313.525 76.6973L284.576 74.7751C280.997 74.5374 279.017 70.515 281.013 67.5346L297.152 43.4249Z" fill="black"/>
</g>
<g clip-path="url(#clip4_51_16)">
<path d="M398.677 201.539C402.418 195.951 410.805 196.508 413.774 202.542L485.127 347.543C488.097 353.577 483.421 360.562 476.711 360.117L315.459 349.41C308.749 348.964 305.038 341.422 308.779 335.834L398.677 201.539Z" fill="black"/>
<path d="M400.971 166.998C404.711 161.41 413.099 161.967 416.068 168.001L471.537 280.724C474.506 286.757 469.83 293.743 463.12 293.297L337.765 284.973C331.055 284.528 327.344 276.986 331.084 271.397L400.971 166.998Z" fill="black"/>
<path d="M403.264 132.457C407.005 126.869 415.392 127.426 418.362 133.46L457.947 213.904C460.916 219.937 456.24 226.923 449.53 226.477L360.071 220.537C353.361 220.091 349.649 212.549 353.39 206.961L403.264 132.457Z" fill="black"/>
<path d="M404.941 104.775C408.682 99.1871 417.069 99.744 420.039 105.778L443.556 153.568C446.525 159.602 441.849 166.587 435.139 166.142L381.992 162.613C375.282 162.167 371.571 154.625 375.312 149.037L404.941 104.775Z" fill="black"/>
<path d="M409.892 83.5101C411.887 80.5297 416.36 80.8268 417.943 84.0448L429.257 107.035C430.84 110.253 428.346 113.978 424.768 113.741L399.201 112.043C395.622 111.806 393.643 107.783 395.638 104.803L409.892 83.5101Z" fill="black"/>
</g>
<g clip-path="url(#clip5_51_16)">
<path d="M480.223 259.792L528.362 357.618L419.573 350.395L480.223 259.792Z" fill="black"/>
<path d="M477.038 246.87C479.033 243.89 483.506 244.187 485.089 247.405L517.076 312.407C518.66 315.625 516.166 319.351 512.587 319.113L440.3 314.313C436.721 314.076 434.742 310.053 436.737 307.073L477.038 246.87Z" fill="black"/>
<path d="M478.341 227.242C480.336 224.262 484.809 224.559 486.393 227.777L509.354 274.437C510.937 277.655 508.443 281.38 504.865 281.143L452.975 277.697C449.397 277.46 447.417 273.437 449.412 270.457L478.341 227.242Z" fill="black"/>
<path d="M479.294 211.512C481.289 208.532 485.762 208.829 487.346 212.047L501.176 240.152C502.759 243.37 500.265 247.095 496.687 246.858L465.432 244.782C461.854 244.545 459.874 240.522 461.869 237.542L479.294 211.512Z" fill="black"/>
<path d="M481.558 200.248C482.805 198.385 485.601 198.571 486.591 200.582L492.615 212.824C493.605 214.836 492.046 217.164 489.809 217.015L476.195 216.111C473.958 215.963 472.721 213.449 473.968 211.586L481.558 200.248Z" fill="black"/>
</g>
<g clip-path="url(#clip6_51_16)">
<path d="M519.83 277.198L551.957 342.485L479.353 337.664L519.83 277.198Z" fill="black"/>
<path d="M516.211 270.804C518.206 267.824 522.68 268.121 524.263 271.339L543.24 309.904C544.824 313.122 542.33 316.847 538.751 316.61L495.865 313.762C492.286 313.524 490.307 309.502 492.302 306.521L516.211 270.804Z" fill="black"/>
<path d="M517.081 257.705C519.076 254.725 523.549 255.022 525.133 258.24L538.086 284.563C539.67 287.781 537.176 291.507 533.597 291.269L504.324 289.325C500.745 289.088 498.766 285.065 500.761 282.085L517.081 257.705Z" fill="black"/>
<path d="M519.4 244.692C520.647 242.829 523.443 243.015 524.433 245.026L533.965 264.397C534.954 266.408 533.396 268.736 531.159 268.588L509.618 267.157C507.381 267.009 506.144 264.495 507.391 262.632L519.4 244.692Z" fill="black"/>
<path d="M520.91 237.176C521.658 236.059 523.336 236.17 523.93 237.377L528.25 246.157C528.844 247.364 527.909 248.761 526.567 248.672L516.803 248.023C515.461 247.934 514.719 246.426 515.467 245.308L520.91 237.176Z" fill="black"/>
</g>
<g clip-path="url(#clip7_51_16)">
<path d="M554.015 272.189L592.108 349.6L506.021 343.884L554.015 272.189Z" fill="black"/>
<path d="M550.557 263.363C552.553 260.383 557.026 260.68 558.609 263.898L582.434 312.313C584.017 315.531 581.524 319.257 577.945 319.019L524.103 315.444C520.525 315.207 518.545 311.184 520.541 308.204L550.557 263.363Z" fill="black"/>
<path d="M551.589 247.831C553.584 244.851 558.057 245.148 559.641 248.366L576.323 282.267C577.906 285.485 575.413 289.21 571.834 288.973L534.134 286.469C530.555 286.232 528.576 282.209 530.571 279.229L551.589 247.831Z" fill="black"/>
<path d="M552.343 235.383C554.338 232.403 558.811 232.7 560.395 235.918L569.852 255.136C571.435 258.354 568.941 262.079 565.363 261.842L543.991 260.423C540.412 260.185 538.433 256.162 540.428 253.182L552.343 235.383Z" fill="black"/>
<path d="M554.486 225.945C555.733 224.082 558.529 224.268 559.518 226.279L563.356 234.078C564.346 236.089 562.787 238.418 560.55 238.269L551.878 237.693C549.641 237.545 548.404 235.031 549.651 233.168L554.486 225.945Z" fill="black"/>
</g>
<g clip-path="url(#clip8_51_16)">
<path d="M585.868 282.003L619.972 351.307L542.901 346.19L585.868 282.003Z" fill="black"/>
<path d="M583.986 272.29C585.233 270.427 588.029 270.612 589.019 272.624L612.274 319.882C613.263 321.894 611.705 324.222 609.468 324.073L556.913 320.584C554.677 320.435 553.44 317.921 554.687 316.058L583.986 272.29Z" fill="black"/>
<path d="M584.909 258.384C586.156 256.521 588.952 256.707 589.942 258.718L606.803 292.983C607.792 294.994 606.234 297.322 603.997 297.174L565.893 294.644C563.656 294.495 562.419 291.981 563.666 290.118L584.909 258.384Z" fill="black"/>
<path d="M585.585 247.24C586.831 245.378 589.627 245.563 590.617 247.574L601.009 268.693C601.999 270.705 600.44 273.033 598.204 272.884L574.718 271.325C572.481 271.176 571.244 268.662 572.491 266.8L585.585 247.24Z" fill="black"/>
<path d="M587.118 239.366C587.867 238.248 589.544 238.359 590.138 239.566L594.889 249.22C595.482 250.427 594.547 251.824 593.205 251.735L582.469 251.022C581.127 250.933 580.385 249.425 581.133 248.307L587.118 239.366Z" fill="black"/>
</g>
</g>
<defs>
<clipPath id="clip0_51_16">
<rect width="608" height="300.506" fill="white" transform="translate(0 0.494141)"/>
</clipPath>
<clipPath id="clip1_51_16">
<rect width="174.446" height="257.062" fill="white" transform="translate(90.3912 67.6829) rotate(1.90747)"/>
</clipPath>
<clipPath id="clip2_51_16">
<rect width="209.204" height="336.612" fill="white" transform="translate(-21.9583 -7.65894) rotate(3.79891)"/>
</clipPath>
<clipPath id="clip3_51_16">
<rect width="192.025" height="292.917" fill="white" transform="translate(214.777 30.9512) rotate(3.79891)"/>
</clipPath>
<clipPath id="clip4_51_16">
<rect width="177.608" height="246.97" fill="white" transform="translate(334.038 71.4695) rotate(3.79891)"/>
</clipPath>
<clipPath id="clip5_51_16">
<rect width="100.925" height="123.922" fill="white" transform="translate(438.71 193.025) rotate(3.79891)"/>
</clipPath>
<clipPath id="clip6_51_16">
<rect width="67.3556" height="82.7032" fill="white" transform="translate(492.125 232.639) rotate(3.79891)"/>
</clipPath>
<clipPath id="clip7_51_16">
<rect width="79.8639" height="98.0616" fill="white" transform="translate(521.165 219.355) rotate(3.79891)"/>
</clipPath>
<clipPath id="clip8_51_16">
<rect width="71.4994" height="87.7912" fill="white" transform="translate(556.458 234.703) rotate(3.79891)"/>
</clipPath>
</defs>
</svg>
