<svg width="541.5" height="315" viewBox="0 0 361 210" fill="none" xmlns="http://www.w3.org/2000/svg">
<mask id="mask0_62_47" style="mask-type:alpha" maskUnits="userSpaceOnUse" x="0" y="0" width="361" height="214">
<g clip-path="url(#clip0_62_47)">
<path d="M354.811 139.543L1.03143 220.144V253H354.811V139.543Z" fill="black" stroke="black" stroke-width="1.03143"/>
<g clip-path="url(#clip1_62_47)">
<path d="M63.9081 162.539C62.2888 160.162 58.7038 160.43 57.4551 163.02L21.1077 238.43C19.859 241.02 21.8831 243.991 24.751 243.777L108.231 237.551C111.099 237.337 112.66 234.098 111.041 231.721L63.9081 162.539Z" fill="black"/>
<path d="M62.611 145.149C60.9918 142.772 57.4068 143.04 56.1581 145.631L27.6794 204.715C26.4307 207.305 28.4548 210.276 31.3227 210.062L96.7303 205.184C99.5983 204.97 101.159 201.731 99.54 199.355L62.611 145.149Z" fill="black"/>
<path d="M61.3138 127.759C59.6946 125.382 56.1096 125.65 54.8609 128.24L34.251 170.999C33.0022 173.59 35.0263 176.561 37.8943 176.347L85.2295 172.816C88.0975 172.602 89.6584 169.364 88.0392 166.987L61.3138 127.759Z" fill="black"/>
<path d="M60.3555 113.821C58.7362 111.445 55.1512 111.712 53.9025 114.303L41.2527 140.547C40.004 143.138 42.028 146.109 44.896 145.895L73.9491 143.728C76.8171 143.514 78.378 140.275 76.7588 137.899L60.3555 113.821Z" fill="black"/>
<path d="M58.0769 103.574C57.2133 102.306 55.3013 102.449 54.6353 103.83L48.4977 116.564C47.8317 117.946 48.9112 119.53 50.4408 119.416L64.5372 118.365C66.0668 118.251 66.8993 116.523 66.0356 115.256L58.0769 103.574Z" fill="black"/>
</g>
<g clip-path="url(#clip2_62_47)">
<path d="M123.262 131.642C121.061 128.411 116.187 128.774 114.489 132.297L65.0727 234.82C63.375 238.342 66.1268 242.381 70.026 242.09L183.522 233.625C187.421 233.334 189.543 228.931 187.342 225.7L123.262 131.642Z" fill="black"/>
<path d="M121.499 108C119.297 104.768 114.423 105.132 112.726 108.654L74.0073 188.982C72.3096 192.505 75.0614 196.544 78.9606 196.253L167.886 189.62C171.785 189.329 173.908 184.926 171.706 181.695L121.499 108Z" fill="black"/>
<path d="M119.735 84.3565C117.534 81.1251 112.66 81.4887 110.962 85.0109L82.9417 143.144C81.244 146.666 83.9958 150.706 87.895 150.415L152.25 145.615C156.149 145.324 158.271 140.921 156.07 137.69L119.735 84.3565Z" fill="black"/>
<path d="M118.432 65.4079C116.231 62.1765 111.357 62.5401 109.659 66.0623L92.461 101.743C90.7632 105.265 93.5151 109.304 97.4143 109.014L136.914 106.067C140.813 105.776 142.935 101.374 140.734 98.1423L118.432 65.4079Z" fill="black"/>
<path d="M115.335 51.4754C114.16 49.752 111.561 49.9459 110.656 51.8244L102.311 69.1364C101.406 71.0149 102.873 73.1692 104.953 73.014L124.118 71.5845C126.197 71.4294 127.329 69.0813 126.155 67.3579L115.335 51.4754Z" fill="black"/>
</g>
<g clip-path="url(#clip3_62_47)">
<path d="M183.085 135.768C180.884 132.537 176.01 132.9 174.312 136.423L124.896 238.946C123.198 242.468 125.95 246.507 129.849 246.216L243.345 237.751C247.244 237.46 249.366 233.057 247.165 229.826L183.085 135.768Z" fill="black"/>
<path d="M181.322 112.125C179.12 108.894 174.246 109.257 172.549 112.78L133.83 193.108C132.132 196.63 134.884 200.669 138.783 200.379L227.709 193.746C231.608 193.455 233.73 189.052 231.529 185.821L181.322 112.125Z" fill="black"/>
<path d="M179.558 88.482C177.357 85.2506 172.483 85.6142 170.785 89.1364L142.765 147.27C141.067 150.792 143.819 154.831 147.718 154.54L212.073 149.74C215.972 149.449 218.094 145.046 215.893 141.815L179.558 88.482Z" fill="black"/>
<path d="M178.255 69.5337C176.054 66.3023 171.18 66.6658 169.482 70.1881L152.284 105.869C150.586 109.391 153.338 113.43 157.237 113.139L196.737 110.193C200.636 109.902 202.758 105.499 200.556 102.268L178.255 69.5337Z" fill="black"/>
<path d="M175.157 55.6011C173.983 53.8777 171.384 54.0716 170.478 55.9501L162.134 73.2621C161.229 75.1406 162.696 77.2949 164.776 77.1398L183.941 75.7103C186.02 75.5551 187.152 73.207 185.978 71.4836L175.157 55.6011Z" fill="black"/>
</g>
<g clip-path="url(#clip4_62_47)">
<path d="M233.886 150.022C232.148 147.47 228.299 147.757 226.958 150.539L187.934 231.502C186.593 234.283 188.766 237.473 191.845 237.243L281.473 230.558C284.553 230.328 286.228 226.851 284.49 224.3L233.886 150.022Z" fill="black"/>
<path d="M232.494 131.352C230.755 128.8 226.906 129.087 225.565 131.868L194.989 195.304C193.649 198.085 195.822 201.275 198.901 201.045L269.126 195.807C272.205 195.578 273.881 192.101 272.142 189.549L232.494 131.352Z" fill="black"/>
<path d="M231.101 112.68C229.362 110.128 225.513 110.416 224.173 113.197L202.045 159.105C200.704 161.887 202.877 165.076 205.956 164.847L256.778 161.056C259.857 160.826 261.533 157.349 259.794 154.797L231.101 112.68Z" fill="black"/>
<path d="M230.072 97.7168C228.333 95.165 224.484 95.4521 223.144 98.2336L209.562 126.411C208.222 129.192 210.395 132.382 213.474 132.152L244.667 129.826C247.746 129.596 249.422 126.119 247.683 123.567L230.072 97.7168Z" fill="black"/>
<path d="M227.625 86.7143C226.698 85.3534 224.645 85.5065 223.93 86.99L217.341 100.661C216.626 102.145 217.785 103.846 219.427 103.723L234.562 102.595C236.204 102.472 237.098 100.618 236.17 99.2568L227.625 86.7143Z" fill="black"/>
</g>
<g clip-path="url(#clip5_62_47)">
<path d="M287.586 94.1422C285.281 90.7579 280.176 91.1387 278.398 94.8275L226.644 202.2C224.866 205.889 227.748 210.119 231.832 209.814L350.696 200.948C354.78 200.644 357.002 196.033 354.697 192.649L287.586 94.1422Z" fill="black"/>
<path d="M285.739 69.3816C283.434 65.9974 278.329 66.3782 276.551 70.067L236.002 154.195C234.224 157.884 237.106 162.114 241.189 161.809L334.321 154.862C338.404 154.558 340.627 149.947 338.321 146.563L285.739 69.3816Z" fill="black"/>
<path d="M283.892 44.6196C281.587 41.2354 276.482 41.6162 274.704 45.305L245.359 106.188C243.58 109.877 246.462 114.107 250.546 113.802L317.945 108.775C322.029 108.47 324.251 103.859 321.946 100.475L283.892 44.6196Z" fill="black"/>
<path d="M282.528 24.7752C280.222 21.391 275.118 21.7718 273.34 25.4606L255.328 62.8289C253.55 66.5177 256.432 70.748 260.516 70.4434L301.883 67.3577C305.967 67.0531 308.19 62.4421 305.884 59.0579L282.528 24.7752Z" fill="black"/>
<path d="M279.283 10.1839C278.054 8.379 275.331 8.58207 274.383 10.5494L265.644 28.6803C264.696 30.6476 266.233 32.9038 268.411 32.7413L288.482 31.2442C290.66 31.0817 291.845 28.6225 290.616 26.8176L279.283 10.1839Z" fill="black"/>
</g>
</g>
</mask>
<g mask="url(#mask0_62_47)">
<rect x="1.03143" y="-0.572266" width="367.189" height="216.317" fill="url(#paint0_radial_62_47)"/>
</g>
<defs>
<radialGradient id="paint0_radial_62_47" cx="0" cy="0" r="1" gradientUnits="userSpaceOnUse" gradientTransform="translate(200.097 215.744) rotate(-108.948) scale(128.649 211.818)">
<stop stop-color="#127190"/>
<stop offset="1" stop-color="#001627"/>
</radialGradient>
<clipPath id="clip0_62_47">
<rect width="361" height="213.7" fill="white" transform="translate(0 0.300049)"/>
</clipPath>
<clipPath id="clip1_62_47">
<rect width="111.268" height="143.959" fill="white" transform="matrix(-0.99723 0.0743837 0.0743837 0.99723 110.96 96.6323)"/>
</clipPath>
<clipPath id="clip2_62_47">
<rect width="151.275" height="195.72" fill="white" transform="matrix(-0.99723 0.0743837 0.0743837 0.99723 187.232 42.0381)"/>
</clipPath>
<clipPath id="clip3_62_47">
<rect width="151.275" height="195.72" fill="white" transform="matrix(-0.99723 0.0743837 0.0743837 0.99723 247.054 46.1638)"/>
</clipPath>
<clipPath id="clip4_62_47">
<rect width="119.462" height="154.561" fill="white" transform="matrix(-0.99723 0.0743837 0.0743837 0.99723 284.403 79.2615)"/>
</clipPath>
<clipPath id="clip5_62_47">
<rect width="158.43" height="204.978" fill="white" transform="matrix(-0.99723 0.0743837 0.0743837 0.99723 354.581 0.300049)"/>
</clipPath>
</defs>
</svg>
