<svg width="422.4" height="313.2" viewBox="0 0 1056 783" fill="none" xmlns="http://www.w3.org/2000/svg">
<g clip-path="url(#clip0_51_45)">
<g clip-path="url(#clip1_51_45)">
<path d="M858.131 367.058C849.646 352.11 828.161 351.952 819.457 366.774L566.117 798.217C557.413 813.039 568.019 831.725 585.208 831.851L1085.52 835.529C1102.71 835.655 1113.59 817.127 1105.1 802.179L858.131 367.058Z" fill="black"/>
<path d="M858.897 262.836C850.412 247.888 828.927 247.73 820.223 262.552L621.728 600.593C613.025 615.415 623.631 634.101 640.819 634.227L1032.82 637.109C1050.01 637.235 1060.89 618.707 1052.4 603.759L858.897 262.836Z" fill="black"/>
<path d="M859.663 158.614C851.179 143.665 829.693 143.507 820.99 158.33L677.339 402.968C668.636 417.791 679.242 436.477 696.43 436.603L980.119 438.688C997.307 438.815 1008.19 420.287 999.702 405.338L859.663 158.614Z" fill="black"/>
<path d="M860.761 75.1238C852.276 60.1751 830.791 60.0171 822.087 74.8395L733.918 224.992C725.215 239.815 735.821 258.5 753.009 258.627L927.13 259.907C944.318 260.033 955.197 241.505 946.713 226.556L860.761 75.1238Z" fill="black"/>
<path d="M852.194 12.9683C847.668 4.99568 836.209 4.91143 831.568 12.8167L788.789 85.6697C784.147 93.575 789.803 103.541 798.97 103.608L883.452 104.229C892.619 104.297 898.422 94.415 893.897 86.4424L852.194 12.9683Z" fill="black"/>
</g>
<g clip-path="url(#clip2_51_45)">
<path d="M506.751 445.09C498.266 430.141 476.781 429.983 468.077 444.806L245.76 823.416C237.056 838.238 247.662 856.924 264.85 857.05L703.895 860.278C721.083 860.404 731.963 841.876 723.478 826.927L506.751 445.09Z" fill="black"/>
<path d="M507.436 351.922C498.951 336.973 477.465 336.815 468.762 351.637L295.473 646.751C286.769 661.574 297.375 680.26 314.563 680.386L656.784 682.902C673.973 683.028 684.852 664.5 676.367 649.551L507.436 351.922Z" fill="black"/>
<path d="M508.12 258.753C499.636 243.804 478.15 243.646 469.447 258.469L345.186 470.087C336.482 484.909 347.088 503.595 364.276 503.722L609.674 505.526C626.862 505.652 637.742 487.124 629.257 472.175L508.12 258.753Z" fill="black"/>
<path d="M509.102 184.117C500.617 169.169 479.131 169.011 470.428 183.833L395.764 310.987C387.061 325.809 397.667 344.495 414.855 344.621L562.305 345.705C579.493 345.831 590.373 327.303 581.888 312.355L509.102 184.117Z" fill="black"/>
<path d="M500.498 126.89C495.973 118.917 484.514 118.833 479.872 126.738L443.846 188.092C439.204 195.997 444.86 205.963 454.027 206.03L525.174 206.553C534.341 206.62 540.143 196.739 535.618 188.766L500.498 126.89Z" fill="black"/>
</g>
<g clip-path="url(#clip3_51_45)">
<path d="M241.381 659.926L89.8142 984.742L446.897 953.594L241.381 659.926Z" fill="black"/>
<path d="M247.588 612.4C242.332 604.889 230.916 605.885 227.039 614.192L121.335 840.721C117.459 849.029 124.029 858.417 133.162 857.621L382.194 835.898C391.327 835.102 396.172 824.717 390.916 817.207L247.588 612.4Z" fill="black"/>
<path d="M241.968 547.974C236.712 540.464 225.296 541.459 221.42 549.767L144.135 715.393C140.258 723.701 146.829 733.089 155.961 732.293L338.04 716.41C347.173 715.614 352.019 705.229 346.762 697.719L241.968 547.974Z" fill="black"/>
<path d="M237.765 496.336C232.509 488.825 221.093 489.821 217.217 498.128L168.68 602.145C164.804 610.452 171.374 619.84 180.507 619.044L294.856 609.07C303.989 608.273 308.834 597.889 303.578 590.378L237.765 496.336Z" fill="black"/>
<path d="M235.26 467.617C230.004 460.106 218.588 461.102 214.712 469.41L199.166 502.726C195.289 511.034 201.859 520.422 210.992 519.625L247.618 516.431C256.751 515.634 261.596 505.25 256.34 497.739L235.26 467.617Z" fill="black"/>
</g>
<g clip-path="url(#clip4_51_45)">
<path d="M82.9301 751.536L-52.6945 1049.81L273.435 1018.13L82.9301 751.536Z" fill="black"/>
<path d="M77.2135 692.696L-32.9815 935.047L231.998 909.303L77.2135 692.696Z" fill="black"/>
<path d="M98.4794 671.614C86.4871 654.832 60.8248 657.325 52.2872 676.102L5.94098 778.031C-2.59661 796.808 12.3938 817.785 32.9237 815.791L144.37 804.963C164.9 802.969 175.572 779.498 163.579 762.716L98.4794 671.614Z" fill="black"/>
<path d="M79.1826 603.472C73.8527 596.013 62.4472 597.122 58.6527 605.467L16.6873 697.761C12.8928 706.106 19.5552 715.43 28.6796 714.543L129.591 704.739C138.716 703.853 143.459 693.421 138.129 685.962L79.1826 603.472Z" fill="black"/>
<path d="M76.6344 577.243C71.3045 569.784 59.899 570.892 56.1045 579.237L43.6594 606.608C39.8649 614.953 46.5273 624.276 55.6517 623.39L85.5778 620.483C94.7022 619.596 99.4453 609.165 94.1154 601.706L76.6344 577.243Z" fill="black"/>
</g>
</g>
<defs>
<clipPath id="clip0_51_45">
<rect width="1055.41" height="783" fill="white" transform="translate(0.587341)"/>
</clipPath>
<clipPath id="clip1_51_45">
<rect width="578.856" height="860.403" fill="white" transform="matrix(-0.999973 -0.00735069 -0.00735069 0.999973 1084.43 -3.18823)"/>
</clipPath>
<clipPath id="clip2_51_45">
<rect width="517.463" height="769.15" fill="white" transform="matrix(-0.999973 -0.00735069 -0.00735069 0.999973 707.025 110.544)"/>
</clipPath>
<clipPath id="clip3_51_45">
<rect width="283.564" height="533.868" fill="white" transform="matrix(-0.996217 0.0868973 0.0868973 0.996217 373.287 437.646)"/>
</clipPath>
<clipPath id="clip4_51_45">
<rect width="328.336" height="271.429" fill="white" transform="matrix(-0.995314 0.0966993 0.0966993 0.995314 201.505 547.164)"/>
</clipPath>
</defs>
</svg>
